# xmcd
#
# Track frame offsets:
#	150
#	15712
#	34865
#	45772
#	56152
#	66147
#	81902
#	95243
#	108379
#	119614
#	128631
#	143265
#	156666
#	169978
#	181272
#	194648
#	205433
#	217251
#	232775
#	241822
#	255423
#
# Disc length: 3607 seconds
#
# Revision: 2
# Processed by: cddbd v1.5.2PL0 Copyright (c) Steve Scherf et al.
# Submitted via: EZCDAudioConverter 2.1.7.1
#
DISCID=2f0e1515
DTITLE=V/A - Eccentric Soul: The Young Disciples
DYEAR=2008
DGENRE=
TTITLE0=LaVel Moore - The World Is Changing
TTITLE1=Young Disciples Co. - Crumbs From The Table
TTITLE2=Third Flight - Third Flight
TTITLE3=The Debonettes - Tears
TTITLE4=Ames Harris Desert Water Bag Company - Checking Myself
TTITLE5=Sharon Clark and The Product Of Time - I'm Not Afraid Of Love
TTITLE6=DeDe Turner Happening - Anyone Or Anything
TTITLE7=Young Disciples Co. - Girls Girls Girls
TTITLE8=Dauphin Williams - I Love You
TTITLE9=The Georgettes - Hard Hard
TTITLE10=Bobby McNutt - Country Loving Country Style
TTITLE11=Sharon Clark and The Product Of Time - It's Not Your Business
TTITLE12=Ames Harris Desert Water Bag Company - People
TTITLE13=The Georgettes - Would You Rather
TTITLE14=Third Flight - Love Love Love
TTITLE15=The Debonettes - Choose Me
TTITLE16=DeDe Turner Happening - Outside Of Memphis
TTITLE17=Sharon Clark and The Product Of Time - That's A Good Reason
TTITLE18=Dauphin Williams - I'm Your Man
TTITLE19=Young Disciples Co. - Bang Bang Bang
TTITLE20=Eddie Fisher and Allan "Dealth" Merry - Homeboy
EXTD=
EXTT0=
EXTT1=
EXTT2=
EXTT3=
EXTT4=
EXTT5=
EXTT6=
EXTT7=
EXTT8=
EXTT9=
EXTT10=
EXTT11=
EXTT12=
EXTT13=
EXTT14=
EXTT15=
EXTT16=
EXTT17=
EXTT18=
EXTT19=
EXTT20=
PLAYORDER=
